<svg xmlns="http://www.w3.org/2000/svg" width="15.696" height="31.071" viewBox="0 0 15.696 31.071"><defs><style>.a{fill:#385c8e;}</style></defs><path class="a" d="M127.183,16.549h3.406V30.57a.5.5,0,0,0,.5.5h5.775a.5.5,0,0,0,.5-.5V16.615h3.915a.5.5,0,0,0,.5-.444l.595-5.162a.5.5,0,0,0-.5-.558h-4.51V7.214c0-.975.525-1.47,1.561-1.47h2.949a.5.5,0,0,0,.5-.5V.5a.5.5,0,0,0-.5-.5h-4.064c-.029,0-.092,0-.186,0a7.787,7.787,0,0,0-5.092,1.92,5.34,5.34,0,0,0-1.776,4.747V10.45h-3.576a.5.5,0,0,0-.5.5v5.1A.5.5,0,0,0,127.183,16.549Z" transform="translate(-126.682)"/></svg>