<svg xmlns="http://www.w3.org/2000/svg" width="31.141" height="31.141" viewBox="0 0 31.141 31.141"><defs><style>.a{fill:#fbbb00;}.b{fill:#518ef8;}.c{fill:#28b446;}.d{fill:#f14336;}</style></defs><path class="a" d="M6.9,148.677l-1.084,4.047-3.962.084a15.6,15.6,0,0,1-.115-14.539h0l3.527.647,1.545,3.506a9.292,9.292,0,0,0,.087,6.256Z" transform="translate(0 -129.858)"/><path class="b" d="M276.584,208.176a15.564,15.564,0,0,1-5.551,15.051h0L266.59,223l-.629-3.925a9.28,9.28,0,0,0,3.993-4.739h-8.326v-6.16h14.956Z" transform="translate(-245.715 -195.514)"/><path class="c" d="M53.971,318.3h0a15.575,15.575,0,0,1-23.462-4.763l5.046-4.13A9.26,9.26,0,0,0,48.9,314.15Z" transform="translate(-28.653 -290.59)"/><path class="d" d="M52.392,3.585l-5.044,4.13A9.259,9.259,0,0,0,33.7,12.562L28.625,8.41h0A15.574,15.574,0,0,1,52.392,3.585Z" transform="translate(-26.883)"/></svg>