<svg xmlns="http://www.w3.org/2000/svg" width="31.386" height="30" viewBox="0 0 31.386 30"><defs><style>.a{fill:#069;}</style></defs><g transform="translate(0 -0.5)"><path class="a" d="M6.488,159.684h6.728v20.242H6.488Zm0,0" transform="translate(-6.091 -149.426)"/><path class="a" d="M3.806.5a3.507,3.507,0,1,0-.088,6.994h.044A3.508,3.508,0,1,0,3.806.5Zm0,0" transform="translate(0)"/><path class="a" d="M189.765,151.934a6.679,6.679,0,0,0-6.064,3.341v-2.866h-6.728v20.242H183.7v-11.3a4.612,4.612,0,0,1,.221-1.642,3.683,3.683,0,0,1,3.452-2.46c2.435,0,3.408,1.856,3.408,4.577v10.829h6.728V161.045c0-6.217-3.319-9.111-7.746-9.111Zm0,0" transform="translate(-166.124 -142.151)"/></g></svg>