<svg xmlns="http://www.w3.org/2000/svg" width="37.89" height="31.141" viewBox="0 0 37.89 31.141"><defs><style>.a{fill:#03a9f4;}</style></defs><path class="a" d="M37.673,47.5a.824.824,0,0,0-.988-.175,7.035,7.035,0,0,1-1.053.381,7.413,7.413,0,0,0,1.252-2.41.824.824,0,0,0-1.268-.886,17.313,17.313,0,0,1-3.964,1.55,8.29,8.29,0,0,0-10.387-.8,8.175,8.175,0,0,0-3.558,7.553,19.506,19.506,0,0,1-13.66-7.357.852.852,0,0,0-.7-.308.823.823,0,0,0-.659.4,7.973,7.973,0,0,0-.909,6.189,8.814,8.814,0,0,0,1.432,2.993,4.374,4.374,0,0,1-.837-.535.824.824,0,0,0-1.343.639,8.519,8.519,0,0,0,4.389,7.315,6.108,6.108,0,0,1-1.061-.227.824.824,0,0,0-.988,1.127,8.99,8.99,0,0,0,6.24,5.107,14.514,14.514,0,0,1-8.69,1.789.812.812,0,0,0-.878.563.824.824,0,0,0,.379.972,24.686,24.686,0,0,0,12.174,3.46,20.909,20.909,0,0,0,11.555-3.534c6.529-4.333,10.6-12.112,10.031-19.072A15.388,15.388,0,0,0,37.762,48.5.824.824,0,0,0,37.673,47.5Z" transform="translate(0 -43.702)"/></svg>