<svg xmlns="http://www.w3.org/2000/svg" width="200.356" height="25.271" viewBox="0 0 200.356 25.271"><defs><style>.a{fill:#ff8e31;}.b{fill:#231f20;}</style></defs><path class="a" d="M89.479,33.863a4.11,4.11,0,1,1,1.816-7.8l2.383-2.383a7.383,7.383,0,1,0,0,12.15L91.3,33.455a4.087,4.087,0,0,1-1.806.422Z" transform="translate(-57.822 -16.871)"/><path class="a" d="M101.029,39a1.885,1.885,0,1,0,1.882,1.885A1.885,1.885,0,0,0,101.029,39Z" transform="translate(-69.247 -28.02)"/><path class="a" d="M122.059,5.69a7.344,7.344,0,0,0-4.189,1.318l2.383,2.383a4.11,4.11,0,1,1,0,7.38l-2.383,2.383A7.38,7.38,0,1,0,122.059,5.69Z" transform="translate(-81.803 -5.69)"/><path class="a" d="M126.372,26.141a1.885,1.885,0,1,0-1.882-1.885A1.885,1.885,0,0,0,126.372,26.141Z" transform="translate(-86.241 -16.872)"/><path class="b" d="M25.959,9.1,19.054,20.745,12.04,9.1H8.45V27.839h4.071v-11l5.488,9.022h1.955L25.478,16.6,25.5,27.839h4.068L29.519,9.1Z" transform="translate(-8.45 -7.976)"/><path class="b" d="M220.016,9.1l-6.906,11.645L206.1,9.1H202.51V27.839h4.068v-11l5.488,9.022h1.955l5.515-9.262.026,11.243h4.071L223.579,9.1Z" transform="translate(-138.544 -7.976)"/><path class="b" d="M170.691,27.074a1.734,1.734,0,0,1-1.318-.494,1.978,1.978,0,0,1-.468-1.4V19.318h3.583V16.1H168.9V12.59h-4.176V16.1H162.5v3.22h2.222v5.933a5.02,5.02,0,0,0,1.4,3.853,5.626,5.626,0,0,0,3.975,1.318,7.654,7.654,0,0,0,1.889-.227,4.265,4.265,0,0,0,1.513-.682l-1.124-2.944a2.683,2.683,0,0,1-1.688.534Z" transform="translate(-111.722 -10.316)"/><path class="b" d="M285.843,22.26l-4.068,9.77-4.044-9.77h-4.311l6.24,14.5-.053.132a3.517,3.517,0,0,1-.962,1.378,2.205,2.205,0,0,1-1.391.415,3.468,3.468,0,0,1-1.246-.241,3.593,3.593,0,0,1-1.111-.659l-1.526,2.967a4.911,4.911,0,0,0,1.793.962,7.317,7.317,0,0,0,2.222.349,6,6,0,0,0,3.52-1.019,7.549,7.549,0,0,0,2.449-3.507l6.507-15.281Z" transform="translate(-186.047 -16.798)"/><path class="b" d="M496.261,25.024A3.542,3.542,0,0,1,499.5,27l3.24-1.74a5.647,5.647,0,0,0-2.475-2.716,8.013,8.013,0,0,0-3.975-.949,8.85,8.85,0,0,0-4.137.949,7.116,7.116,0,0,0-2.864,2.637,7.614,7.614,0,0,0,0,7.654,7.116,7.116,0,0,0,2.864,2.637,8.85,8.85,0,0,0,4.137.949,7.911,7.911,0,0,0,3.975-.962,5.765,5.765,0,0,0,2.475-2.677l-3.24-1.767a3.506,3.506,0,0,1-3.24,1.978,3.662,3.662,0,0,1-2.7-1.071,3.942,3.942,0,0,1-1.071-2.917,3.942,3.942,0,0,1,1.071-2.917,3.665,3.665,0,0,1,2.7-1.071Z" transform="translate(-320.103 -16.351)"/><path class="b" d="M554.329,12.543A5.934,5.934,0,0,0,550,10.938a7.251,7.251,0,0,0-2.571.442,5.541,5.541,0,0,0-2.007,1.272V5.69H541.25V25.569h4.176V18.433a4.044,4.044,0,0,1,.936-2.9,3.326,3.326,0,0,1,2.518-.989,2.746,2.746,0,0,1,2.175.854,3.768,3.768,0,0,1,.752,2.555v7.621h4.176v-8.24a6.372,6.372,0,0,0-1.648-4.766Z" transform="translate(-355.628 -5.69)"/><path class="b" d="M447.557,31.663a2.71,2.71,0,0,1-1.177,1.46,3.626,3.626,0,0,1-1.9.494,2.828,2.828,0,0,1-1.727-.468,1.5,1.5,0,0,1-.63-1.272q0-1.688,2.571-1.688h2.864v1.473ZM444.8,21.6a12.657,12.657,0,0,0-3.388.458,9.052,9.052,0,0,0-2.825,1.286l1.5,2.917a5.984,5.984,0,0,1,1.889-.989,7.251,7.251,0,0,1,2.261-.363,3.682,3.682,0,0,1,2.489.735,2.663,2.663,0,0,1,.831,2.1h-3.319a7.711,7.711,0,0,0-4.671,1.15,3.755,3.755,0,0,0-1.513,3.158,4.038,4.038,0,0,0,.639,2.264,4.286,4.286,0,0,0,1.862,1.553,6.813,6.813,0,0,0,2.878.564q3.214,0,4.391-2.007v1.806h3.909v-8.24a6.1,6.1,0,0,0-1.793-4.806A7.5,7.5,0,0,0,444.8,21.59Z" transform="translate(-286.446 -16.349)"/><path class="b" d="M395.739,31.932a3.478,3.478,0,0,1-2.637,1.084,3.52,3.52,0,0,1-2.637-1.084,4.008,4.008,0,0,1-1.061-2.9,4.008,4.008,0,0,1,1.045-2.9,3.524,3.524,0,0,1,2.637-1.084,3.481,3.481,0,0,1,2.637,1.084,4.045,4.045,0,0,1,1.032,2.9,4.045,4.045,0,0,1-1.032,2.9Zm1.434-9.371a9.229,9.229,0,0,0-8.151,0A7.07,7.07,0,0,0,386.2,25.2a7.7,7.7,0,0,0,0,7.654,7.07,7.07,0,0,0,2.825,2.637,9.229,9.229,0,0,0,8.151,0,7.094,7.094,0,0,0,2.812-2.637,7.7,7.7,0,0,0,0-7.654,7.094,7.094,0,0,0-2.812-2.637Z" transform="translate(-251 -16.364)"/><path class="b" d="M332.942,26.091a9.262,9.262,0,0,1-3.626-3.441A9.48,9.48,0,0,1,328,17.672a9.481,9.481,0,0,1,1.318-4.974,9.262,9.262,0,0,1,3.626-3.441,11.579,11.579,0,0,1,9.559-.386,8.794,8.794,0,0,1,3.3,2.439l-2.775,2.561a5.966,5.966,0,0,0-4.7-2.189,6.233,6.233,0,0,0-3.075.775,5.406,5.406,0,0,0-2.123,2.123,6.233,6.233,0,0,0-.761,3.1,6.233,6.233,0,0,0,.761,3.1,5.405,5.405,0,0,0,2.123,2.119,6.233,6.233,0,0,0,3.1.761,5.933,5.933,0,0,0,4.7-2.215L345.8,24a8.653,8.653,0,0,1-3.3,2.475,10.983,10.983,0,0,1-4.4.854,10.726,10.726,0,0,1-5.155-1.236Z" transform="translate(-212.667 -7.253)"/><circle class="b" cx="2.5" cy="2.5" r="2.5" transform="translate(107 14.863)"/></svg>