<svg xmlns="http://www.w3.org/2000/svg" xmlns:xlink="http://www.w3.org/1999/xlink" width="86" height="154" viewBox="0 0 86 154"><defs><style>.a{fill:none;}.b{clip-path:url(#a);}.c{fill:#221f20;}.d{clip-path:url(#b);}.e{clip-path:url(#c);}.f{clip-path:url(#d);}.g{clip-path:url(#e);}.h{clip-path:url(#f);}</style><clipPath id="a"><rect class="a" width="6" height="154"/></clipPath><clipPath id="b"><rect class="a" width="6" height="120"/></clipPath><clipPath id="c"><rect class="a" width="6" height="89"/></clipPath><clipPath id="d"><rect class="a" width="6" height="56"/></clipPath><clipPath id="e"><rect class="a" width="6" height="25"/></clipPath><clipPath id="f"><rect class="a" width="6" height="9"/></clipPath></defs><g class="b"><g transform="translate(-1087 -309)"><circle class="c" cx="3" cy="3" r="3" transform="translate(1087 309)"/></g><g transform="translate(-1087 -293)"><circle class="c" cx="3" cy="3" r="3" transform="translate(1087 309)"/></g><g transform="translate(-1087 -277)"><circle class="c" cx="3" cy="3" r="3" transform="translate(1087 309)"/></g><g transform="translate(-1087 -261)"><circle class="c" cx="3" cy="3" r="3" transform="translate(1087 309)"/></g><g transform="translate(-1087 -245)"><circle class="c" cx="3" cy="3" r="3" transform="translate(1087 309)"/></g><g transform="translate(-1087 -229)"><circle class="c" cx="3" cy="3" r="3" transform="translate(1087 309)"/></g><g transform="translate(-1087 -213)"><circle class="c" cx="3" cy="3" r="3" transform="translate(1087 309)"/></g><g transform="translate(-1087 -197)"><circle class="c" cx="3" cy="3" r="3" transform="translate(1087 309)"/></g><g transform="translate(-1087 -181)"><circle class="c" cx="3" cy="3" r="3" transform="translate(1087 309)"/></g><g transform="translate(-1087 -165)"><circle class="c" cx="3" cy="3" r="3" transform="translate(1087 309)"/></g></g><g class="d" transform="translate(16 16)"><g transform="translate(-1087 -309)"><circle class="c" cx="3" cy="3" r="3" transform="translate(1087 309)"/></g><g transform="translate(-1087 -293)"><circle class="c" cx="3" cy="3" r="3" transform="translate(1087 309)"/></g><g transform="translate(-1087 -277)"><circle class="c" cx="3" cy="3" r="3" transform="translate(1087 309)"/></g><g transform="translate(-1087 -261)"><circle class="c" cx="3" cy="3" r="3" transform="translate(1087 309)"/></g><g transform="translate(-1087 -245)"><circle class="c" cx="3" cy="3" r="3" transform="translate(1087 309)"/></g><g transform="translate(-1087 -229)"><circle class="c" cx="3" cy="3" r="3" transform="translate(1087 309)"/></g><g transform="translate(-1087 -213)"><circle class="c" cx="3" cy="3" r="3" transform="translate(1087 309)"/></g><g transform="translate(-1087 -197)"><circle class="c" cx="3" cy="3" r="3" transform="translate(1087 309)"/></g></g><g class="e" transform="translate(32 32)"><g transform="translate(-1087 -309)"><circle class="c" cx="3" cy="3" r="3" transform="translate(1087 309)"/></g><g transform="translate(-1087 -293)"><circle class="c" cx="3" cy="3" r="3" transform="translate(1087 309)"/></g><g transform="translate(-1087 -277)"><circle class="c" cx="3" cy="3" r="3" transform="translate(1087 309)"/></g><g transform="translate(-1087 -261)"><circle class="c" cx="3" cy="3" r="3" transform="translate(1087 309)"/></g><g transform="translate(-1087 -245)"><circle class="c" cx="3" cy="3" r="3" transform="translate(1087 309)"/></g><g transform="translate(-1087 -229)"><circle class="c" cx="3" cy="3" r="3" transform="translate(1087 309)"/></g></g><g class="f" transform="translate(48 48)"><g transform="translate(-1087 -309)"><circle class="c" cx="3" cy="3" r="3" transform="translate(1087 309)"/></g><g transform="translate(-1087 -293)"><circle class="c" cx="3" cy="3" r="3" transform="translate(1087 309)"/></g><g transform="translate(-1087 -277)"><circle class="c" cx="3" cy="3" r="3" transform="translate(1087 309)"/></g><g transform="translate(-1087 -261)"><circle class="c" cx="3" cy="3" r="3" transform="translate(1087 309)"/></g></g><g class="g" transform="translate(64 64)"><g transform="translate(-1087 -309)"><circle class="c" cx="3" cy="3" r="3" transform="translate(1087 309)"/></g><g transform="translate(-1087 -293)"><circle class="c" cx="3" cy="3" r="3" transform="translate(1087 309)"/></g></g><g class="h" transform="translate(80 72)"><g transform="translate(-1087 -309)"><circle class="c" cx="3" cy="3" r="3" transform="translate(1087 309)"/></g></g></svg>